<svg width="180" height="51" viewBox="0 0 180 51" fill="none" xmlns="http://www.w3.org/2000/svg">
<path d="M179 44.8348C179 47.5356 176.709 49.7233 173.874 49.7233H6.13243C3.2995 49.7233 1 47.5356 1 44.8348V5.8509C1 3.1514 3.2995 0.956055 6.13243 0.956055H173.873C176.709 0.956055 178.999 3.1514 178.999 5.8509L179 44.8348Z" fill="black"/>
<path d="M173.333 1.01518C176.42 1.01518 178.932 3.40187 178.932 6.33496V44.3447C178.932 47.2778 176.42 49.6645 173.333 49.6645H6.66667C3.58 49.6645 1.06833 47.2778 1.06833 44.3447V6.33496C1.06833 3.40187 3.58 1.01518 6.66667 1.01518H173.333ZM173.333 5.56205e-07H6.66667C3.00167 5.56205e-07 0 2.85232 0 6.33496V44.3447C0 47.8274 3.00167 50.6797 6.66667 50.6797H173.333C176.998 50.6797 180 47.8274 180 44.3447V6.33496C180 2.85232 176.998 5.56205e-07 173.333 5.56205e-07Z" fill="#A6A6A6"/>
<path d="M40.1705 25.0662C40.1318 20.9827 43.6891 18.9961 43.8518 18.9036C41.8371 16.1124 38.7145 15.731 37.6171 15.7006C34.9945 15.4384 32.4505 17.1919 31.1145 17.1919C29.7518 17.1919 27.6945 15.726 25.4771 15.769C22.6238 15.8109 19.9545 17.3807 18.4905 19.8184C15.4691 24.7888 17.7225 32.093 20.6171 36.1106C22.0651 38.0782 23.7571 40.2752 25.9718 40.1979C28.1385 40.113 28.9478 38.8853 31.5625 38.8853C34.1531 38.8853 34.9131 40.1979 37.1718 40.1485C39.4971 40.113 40.9611 38.172 42.3585 36.1866C44.0318 33.9314 44.7038 31.7103 44.7305 31.5963C44.6758 31.5786 40.2145 29.9606 40.1705 25.0662Z" fill="white"/>
<path d="M35.9038 13.0577C37.0691 11.6729 37.8665 9.78884 37.6451 7.87695C35.9585 7.9479 33.8491 8.98557 32.6345 10.34C31.5598 11.5335 30.5998 13.4897 30.8478 15.3294C32.7425 15.4637 34.6878 14.421 35.9038 13.0577Z" fill="white"/>
<path d="M71.5269 39.9153H68.4989L66.8402 34.9627H61.0749L59.4949 39.9153H56.5469L62.2589 23.0542H65.7869L71.5269 39.9153ZM66.3402 32.8848L64.8402 28.482C64.6815 28.0322 64.3842 26.973 63.9455 25.3056H63.8922C63.7175 26.0228 63.4362 27.082 63.0495 28.482L61.5762 32.8848H66.3402V32.8848Z" fill="white"/>
<path d="M86.2159 33.6869C86.2159 35.7547 85.6279 37.3891 84.4519 38.5889C83.3985 39.657 82.0905 40.1904 80.5292 40.1904C78.8439 40.1904 77.6332 39.6152 76.8959 38.4648H76.8425V44.8694H73.9999V31.7598C73.9999 30.4599 73.9639 29.1258 73.8945 27.7574H76.3945L76.5532 29.6845H76.6065C77.5545 28.2325 78.9932 27.5078 80.9239 27.5078C82.4332 27.5078 83.6932 28.0742 84.7012 29.2081C85.7119 30.3433 86.2159 31.8359 86.2159 33.6869ZM83.3199 33.7858C83.3199 32.6024 83.0399 31.6268 82.4772 30.859C81.8625 30.0583 81.0372 29.6579 80.0025 29.6579C79.3012 29.6579 78.6639 29.8809 78.0945 30.3205C77.5239 30.764 77.1505 31.343 76.9759 32.0601C76.8879 32.3946 76.8439 32.6683 76.8439 32.8837V34.9108C76.8439 35.7952 77.1292 36.5415 77.6999 37.1509C78.2705 37.7603 79.0119 38.0644 79.9239 38.0644C80.9945 38.0644 81.8279 37.6716 82.4239 36.8886C83.0212 36.1044 83.3199 35.0705 83.3199 33.7858Z" fill="white"/>
<path d="M100.932 33.6869C100.932 35.7547 100.344 37.3891 99.167 38.5889C98.115 39.657 96.807 40.1904 95.2456 40.1904C93.5603 40.1904 92.3496 39.6152 91.6136 38.4648H91.5603V44.8694H88.7176V31.7598C88.7176 30.4599 88.6816 29.1258 88.6123 27.7574H91.1123L91.271 29.6845H91.3243C92.271 28.2325 93.7096 27.5078 95.6416 27.5078C97.1496 27.5078 98.4096 28.0742 99.4203 29.2081C100.427 30.3433 100.932 31.8359 100.932 33.6869ZM98.0363 33.7858C98.0363 32.6024 97.755 31.6268 97.1923 30.859C96.5776 30.0583 95.755 29.6579 94.719 29.6579C94.0163 29.6579 93.3803 29.8809 92.8096 30.3205C92.239 30.764 91.867 31.343 91.6923 32.0601C91.6056 32.3946 91.5603 32.6683 91.5603 32.8837V34.9108C91.5603 35.7952 91.8456 36.5415 92.4136 37.1509C92.9843 37.759 93.7256 38.0644 94.6403 38.0644C95.711 38.0644 96.5443 37.6716 97.1403 36.8886C97.7376 36.1044 98.0363 35.0705 98.0363 33.7858Z" fill="white"/>
<path d="M117.386 35.1869C117.386 36.6211 116.862 37.788 115.81 38.6889C114.654 39.6733 113.045 40.1649 110.977 40.1649C109.067 40.1649 107.537 39.8152 106.378 39.1146L107.037 36.8631C108.285 37.5803 109.654 37.9401 111.146 37.9401C112.217 37.9401 113.05 37.7095 113.649 37.2508C114.245 36.7922 114.542 36.1764 114.542 35.4086C114.542 34.7245 114.297 34.148 113.805 33.6805C113.315 33.2129 112.498 32.7784 111.357 32.3767C108.25 31.2757 106.698 29.6628 106.698 27.5419C106.698 26.1558 107.242 25.0193 108.331 24.1349C109.417 23.2493 110.865 22.8071 112.675 22.8071C114.29 22.8071 115.631 23.0745 116.702 23.6079L115.991 25.8099C114.991 25.293 113.861 25.0345 112.595 25.0345C111.595 25.0345 110.814 25.2689 110.254 25.7351C109.781 26.152 109.543 26.6601 109.543 27.2619C109.543 27.9283 109.814 28.4795 110.358 28.9128C110.831 29.3131 111.691 29.7464 112.939 30.214C114.466 30.7981 115.587 31.481 116.309 32.264C117.027 33.0444 117.386 34.0213 117.386 35.1869Z" fill="white"/>
<path d="M126.784 29.7846H123.651V35.6875C123.651 37.1889 124.203 37.939 125.31 37.939C125.818 37.939 126.239 37.8971 126.572 37.8135L126.651 39.8648C126.091 40.0637 125.354 40.1638 124.44 40.1638C123.318 40.1638 122.44 39.8382 121.807 39.1882C121.176 38.537 120.859 37.4448 120.859 35.9105V29.7821H118.992V27.7549H120.859V25.5288L123.651 24.728V27.7549H126.784V29.7846Z" fill="white"/>
<path d="M140.922 33.7361C140.922 35.6049 140.359 37.1392 139.236 38.339C138.059 39.5744 136.496 40.1901 134.548 40.1901C132.671 40.1901 131.176 39.5984 130.062 38.4151C128.947 37.2317 128.39 35.7379 128.39 33.9375C128.39 32.0535 128.963 30.5103 130.114 29.3105C131.262 28.1093 132.811 27.5088 134.759 27.5088C136.636 27.5088 138.147 28.1005 139.287 29.2851C140.378 30.4343 140.922 31.9179 140.922 33.7361ZM137.972 33.8235C137.972 32.7022 137.72 31.7405 137.21 30.9385C136.614 29.968 135.762 29.484 134.658 29.484C133.515 29.484 132.647 29.9693 132.051 30.9385C131.54 31.7418 131.288 32.7187 131.288 33.8742C131.288 34.9954 131.54 35.9571 132.051 36.7578C132.666 37.7283 133.524 38.2123 134.632 38.2123C135.718 38.2123 136.57 37.7182 137.184 36.7325C137.708 35.9153 137.972 34.9435 137.972 33.8235Z" fill="white"/>
<path d="M150.162 30.133C149.88 30.0836 149.58 30.0583 149.266 30.0583C148.266 30.0583 147.492 30.4168 146.948 31.1352C146.475 31.7687 146.238 32.5694 146.238 33.5362V39.9155H143.396L143.423 31.5863C143.423 30.185 143.387 28.9091 143.316 27.7587H145.792L145.896 30.0849H145.975C146.275 29.2854 146.748 28.6418 147.396 28.159C148.03 27.7245 148.714 27.5078 149.451 27.5078C149.714 27.5078 149.951 27.5255 150.162 27.5572V30.133Z" fill="white"/>
<path d="M162.875 33.2611C162.875 33.7451 162.841 34.153 162.771 34.4863H154.243C154.276 35.6874 154.688 36.6059 155.48 37.2394C156.199 37.8058 157.128 38.0896 158.269 38.0896C159.532 38.0896 160.684 37.8983 161.72 37.5144L162.165 39.3895C160.955 39.8912 159.525 40.1408 157.876 40.1408C155.892 40.1408 154.335 39.5859 153.201 38.4773C152.071 37.3687 151.504 35.88 151.504 34.0124C151.504 32.1791 152.031 30.6523 153.085 29.4348C154.189 28.1348 155.681 27.4849 157.559 27.4849C159.403 27.4849 160.799 28.1348 161.747 29.4348C162.497 30.4674 162.875 31.7445 162.875 33.2611ZM160.164 32.5604C160.183 31.7597 159.997 31.0679 159.612 30.4838C159.12 29.7325 158.364 29.3575 157.347 29.3575C156.417 29.3575 155.661 29.7236 155.084 30.4585C154.611 31.0426 154.329 31.7432 154.243 32.5592H160.164V32.5604Z" fill="white"/>
<path d="M65.3997 12.6818C65.3997 14.1731 64.9291 15.2956 63.989 16.0495C63.1184 16.7451 61.881 17.0935 60.2784 17.0935C59.4837 17.0935 58.8037 17.0605 58.2344 16.9947V8.84663C58.977 8.7326 59.777 8.67432 60.641 8.67432C62.1677 8.67432 63.3184 8.9898 64.0944 9.62076C64.9637 10.3341 65.3997 11.354 65.3997 12.6818ZM63.9264 12.7186C63.9264 11.7518 63.657 11.0106 63.1184 10.4937C62.5797 9.97805 61.793 9.71958 60.757 9.71958C60.317 9.71958 59.9424 9.74746 59.6317 9.80574V16.0001C59.8037 16.0254 60.1184 16.0368 60.5757 16.0368C61.645 16.0368 62.4704 15.7543 63.0517 15.1892C63.6331 14.6241 63.9264 13.8006 63.9264 12.7186Z" fill="white"/>
<path d="M73.2117 13.9838C73.2117 14.9024 72.9357 15.655 72.3837 16.2454C71.805 16.8523 71.0383 17.1551 70.081 17.1551C69.1583 17.1551 68.4237 16.865 67.8757 16.2821C67.329 15.7006 67.0557 14.967 67.0557 14.0826C67.0557 13.1577 67.337 12.3988 67.9023 11.8097C68.4677 11.2205 69.2277 10.9253 70.185 10.9253C71.1077 10.9253 71.849 11.2154 72.4103 11.797C72.9437 12.3621 73.2117 13.0918 73.2117 13.9838ZM71.7623 14.0269C71.7623 13.4757 71.637 13.0032 71.3877 12.6091C71.0943 12.1327 70.677 11.8945 70.1343 11.8945C69.573 11.8945 69.1463 12.1327 68.853 12.6091C68.6023 13.0032 68.4783 13.4833 68.4783 14.051C68.4783 14.6021 68.6037 15.0747 68.853 15.4687C69.1557 15.9451 69.577 16.1833 70.121 16.1833C70.6543 16.1833 71.073 15.9413 71.3743 15.4561C71.633 15.0544 71.7623 14.578 71.7623 14.0269Z" fill="white"/>
<path d="M83.6867 11.0474L81.7201 17.02H80.4401L79.6254 14.4264C79.4187 13.779 79.2507 13.1354 79.1201 12.4968H79.0947C78.9734 13.1531 78.8054 13.7955 78.5894 14.4264L77.7241 17.02H76.4294L74.5801 11.0474H76.0161L76.7267 13.8867C76.8987 14.5582 77.0401 15.198 77.1534 15.8037H77.1787C77.2827 15.3045 77.4547 14.6684 77.6974 13.8994L78.5894 11.0486H79.7281L80.5827 13.8385C80.7894 14.5189 80.9574 15.174 81.0867 15.8049H81.1254C81.2201 15.1904 81.3627 14.5354 81.5521 13.8385L82.3147 11.0486H83.6867V11.0474Z" fill="white"/>
<path d="M90.9302 17.0199H89.5329V13.599C89.5329 12.5449 89.1116 12.0178 88.2662 12.0178C87.8516 12.0178 87.5169 12.1623 87.2569 12.4524C86.9996 12.7425 86.8689 13.0846 86.8689 13.4761V17.0186H85.4716V12.7539C85.4716 12.2294 85.4542 11.6605 85.4209 11.0448H86.6489L86.7142 11.9785H86.7529C86.9156 11.6884 87.1582 11.4489 87.4769 11.2576C87.8556 11.0346 88.2796 10.9219 88.7436 10.9219C89.3302 10.9219 89.8182 11.1018 90.2062 11.4629C90.6889 11.9051 90.9302 12.5652 90.9302 13.4419V17.0199V17.0199Z" fill="white"/>
<path d="M94.7837 17.0197H93.3877V8.30664H94.7837V17.0197Z" fill="white"/>
<path d="M103.01 13.9838C103.01 14.9024 102.734 15.655 102.182 16.2454C101.604 16.8523 100.836 17.1551 99.8798 17.1551C98.9558 17.1551 98.2212 16.865 97.6745 16.2821C97.1278 15.7006 96.8545 14.967 96.8545 14.0826C96.8545 13.1577 97.1358 12.3988 97.7012 11.8097C98.2665 11.2205 99.0265 10.9253 99.9825 10.9253C100.906 10.9253 101.646 11.2154 102.209 11.797C102.742 12.3621 103.01 13.0918 103.01 13.9838ZM101.56 14.0269C101.56 13.4757 101.434 13.0032 101.185 12.6091C100.893 12.1327 100.474 11.8945 99.9332 11.8945C99.3705 11.8945 98.9438 12.1327 98.6518 12.6091C98.4012 13.0032 98.2772 13.4833 98.2772 14.051C98.2772 14.6021 98.4025 15.0747 98.6518 15.4687C98.9545 15.9451 99.3758 16.1833 99.9198 16.1833C100.453 16.1833 100.87 15.9413 101.172 15.4561C101.432 15.0544 101.56 14.578 101.56 14.0269Z" fill="white"/>
<path d="M109.773 17.0195H108.519L108.415 16.3315H108.376C107.947 16.8802 107.335 17.1551 106.54 17.1551C105.947 17.1551 105.467 16.9739 105.105 16.6141C104.777 16.2872 104.613 15.8805 104.613 15.3978C104.613 14.668 104.933 14.1118 105.577 13.7266C106.22 13.3414 107.124 13.1527 108.288 13.1615V13.05C108.288 12.2632 107.853 11.8705 106.983 11.8705C106.363 11.8705 105.816 12.0187 105.344 12.3126L105.06 11.441C105.644 11.0976 106.365 10.9253 107.216 10.9253C108.859 10.9253 109.683 11.7488 109.683 13.3959V15.5954C109.683 16.1922 109.713 16.6673 109.773 17.0195ZM108.323 14.967V14.0459C106.781 14.0206 106.011 14.4222 106.011 15.2495C106.011 15.5612 106.099 15.7943 106.279 15.9502C106.459 16.106 106.688 16.1833 106.961 16.1833C107.268 16.1833 107.555 16.0908 107.816 15.9071C108.079 15.7221 108.24 15.4877 108.3 15.2001C108.315 15.1355 108.323 15.057 108.323 14.967Z" fill="white"/>
<path d="M117.713 17.0197H116.473L116.408 16.0606H116.369C115.973 16.7904 115.298 17.1553 114.35 17.1553C113.593 17.1553 112.962 16.8728 112.462 16.3077C111.962 15.7426 111.713 15.009 111.713 14.1082C111.713 13.1415 111.984 12.3585 112.528 11.7605C113.054 11.203 113.7 10.9242 114.468 10.9242C115.312 10.9242 115.902 11.1941 116.238 11.7351H116.265V8.30664H117.664V15.4107C117.664 15.9922 117.68 16.5282 117.713 17.0197ZM116.265 14.501V13.5051C116.265 13.3328 116.252 13.1934 116.226 13.087C116.148 12.7677 115.978 12.4991 115.721 12.2825C115.461 12.0658 115.148 11.9568 114.786 11.9568C114.265 11.9568 113.857 12.1532 113.557 12.5473C113.26 12.9413 113.109 13.4443 113.109 14.0588C113.109 14.6492 113.252 15.1281 113.538 15.4968C113.841 15.8896 114.249 16.086 114.76 16.086C115.218 16.086 115.585 15.9225 115.864 15.5944C116.133 15.2916 116.265 14.9267 116.265 14.501Z" fill="white"/>
<path d="M129.664 13.9838C129.664 14.9024 129.388 15.655 128.836 16.2454C128.257 16.8523 127.492 17.1551 126.533 17.1551C125.612 17.1551 124.877 16.865 124.328 16.2821C123.781 15.7006 123.508 14.967 123.508 14.0826C123.508 13.1577 123.789 12.3988 124.354 11.8097C124.92 11.2205 125.68 10.9253 126.638 10.9253C127.56 10.9253 128.302 11.2154 128.862 11.797C129.396 12.3621 129.664 13.0918 129.664 13.9838ZM128.216 14.0269C128.216 13.4757 128.09 13.0032 127.841 12.6091C127.546 12.1327 127.13 11.8945 126.586 11.8945C126.026 11.8945 125.6 12.1327 125.305 12.6091C125.054 13.0032 124.93 13.4833 124.93 14.051C124.93 14.6021 125.056 15.0747 125.305 15.4687C125.608 15.9451 126.029 16.1833 126.573 16.1833C127.106 16.1833 127.526 15.9413 127.828 15.4561C128.085 15.0544 128.216 14.578 128.216 14.0269Z" fill="white"/>
<path d="M137.177 17.0199H135.781V13.599C135.781 12.5449 135.36 12.0178 134.513 12.0178C134.098 12.0178 133.764 12.1623 133.505 12.4524C133.246 12.7425 133.117 13.0846 133.117 13.4761V17.0186H131.718V12.7539C131.718 12.2294 131.702 11.6605 131.669 11.0448H132.896L132.961 11.9785H133C133.164 11.6884 133.406 11.4489 133.724 11.2576C134.104 11.0346 134.526 10.9219 134.992 10.9219C135.577 10.9219 136.065 11.1018 136.453 11.4629C136.937 11.9051 137.177 12.5652 137.177 13.4419V17.0199V17.0199Z" fill="white"/>
<path d="M146.581 12.0416H145.042V14.943C145.042 15.6804 145.316 16.0491 145.857 16.0491C146.108 16.0491 146.316 16.0288 146.48 15.987L146.516 16.9943C146.24 17.0931 145.877 17.1425 145.43 17.1425C144.878 17.1425 144.449 16.9829 144.138 16.6636C143.826 16.3443 143.672 15.8071 143.672 15.0532V12.0416H142.753V11.047H143.672V9.95234L145.041 9.55957V11.0458H146.58V12.0416H146.581Z" fill="white"/>
<path d="M153.978 17.0197H152.58V13.6242C152.58 12.5536 152.158 12.0177 151.314 12.0177C150.666 12.0177 150.224 12.3281 149.981 12.9489C149.94 13.0794 149.916 13.239 149.916 13.4266V17.0185H148.52V8.30664H149.916V11.9062H149.942C150.382 11.2511 151.013 10.9242 151.83 10.9242C152.409 10.9242 152.888 11.1042 153.268 11.4653C153.741 11.915 153.978 12.584 153.978 13.4684V17.0197V17.0197Z" fill="white"/>
<path d="M161.609 13.7509C161.609 13.9891 161.591 14.1892 161.557 14.3527H157.367C157.385 14.9431 157.585 15.3929 157.973 15.7046C158.328 15.9833 158.785 16.1227 159.345 16.1227C159.965 16.1227 160.531 16.0289 161.04 15.8401L161.259 16.7625C160.663 17.0083 159.961 17.1312 159.149 17.1312C158.176 17.1312 157.409 16.8588 156.855 16.314C156.297 15.7692 156.021 15.0381 156.021 14.1208C156.021 13.22 156.279 12.4699 156.797 11.8719C157.339 11.2333 158.071 10.9141 158.995 10.9141C159.899 10.9141 160.585 11.2333 161.049 11.8719C161.424 12.3787 161.609 13.0059 161.609 13.7509ZM160.276 13.4075C160.287 13.0135 160.195 12.6739 160.005 12.3876C159.763 12.0189 159.393 11.8339 158.893 11.8339C158.437 11.8339 158.065 12.0138 157.781 12.3749C157.549 12.6625 157.412 13.0059 157.367 13.4075H160.276Z" fill="white"/>
</svg>
