<svg width="180" height="51" viewBox="0 0 180 51" fill="none" xmlns="http://www.w3.org/2000/svg">
<path d="M173.095 50.6797H6.6575C2.99754 50.6797 0 47.8274 0 44.3447V6.33496C0 2.85232 2.99754 5.56205e-07 6.6575 5.56205e-07H173.095C176.755 5.56205e-07 179.753 2.85232 179.753 6.33496V44.3447C179.753 47.8274 176.755 50.6797 173.095 50.6797Z" fill="black"/>
<path d="M173.095 1.01518C176.177 1.01518 178.686 3.40187 178.686 6.33496V44.3447C178.686 47.2778 176.177 49.6645 173.095 49.6645H6.6575C3.57508 49.6645 1.06686 47.2778 1.06686 44.3447V6.33496C1.06686 3.40187 3.57508 1.01518 6.6575 1.01518H173.095ZM173.095 5.56205e-07H6.6575C2.99754 5.56205e-07 0 2.85232 0 6.33496V44.3447C0 47.8274 2.99754 50.6797 6.6575 50.6797H173.095C176.755 50.6797 179.753 47.8274 179.753 44.3447V6.33496C179.753 2.85232 176.755 5.56205e-07 173.095 5.56205e-07Z" fill="#A6A6A6"/>
<path d="M63.1361 12.9786C63.1361 14.0365 62.8032 14.8838 62.1475 15.5158C61.3935 16.2649 60.4115 16.6418 59.2082 16.6418C58.0581 16.6418 57.0761 16.2585 56.2705 15.5031C55.4633 14.7366 55.0605 13.7958 55.0605 12.6698C55.0605 11.5437 55.4633 10.603 56.2705 9.8428C57.0761 9.08102 58.0581 8.69775 59.2082 8.69775C59.7807 8.69775 60.3266 8.8102 60.8476 9.01925C61.3669 9.22989 61.7896 9.51496 62.0959 9.86655L61.4002 10.5349C60.8659 9.93466 60.1386 9.6385 59.2082 9.6385C58.3693 9.6385 57.642 9.91723 57.0245 10.4795C56.4137 11.0433 56.1074 11.7734 56.1074 12.6698C56.1074 13.5662 56.4137 14.3026 57.0245 14.8664C57.642 15.4223 58.3693 15.7074 59.2082 15.7074C60.0986 15.7074 60.8476 15.4223 61.4384 14.8601C61.8279 14.4879 62.0493 13.9748 62.1075 13.3191H59.2082V12.4037H63.0762C63.1228 12.6017 63.1361 12.7933 63.1361 12.9786V12.9786Z" fill="white" stroke="white" stroke-width="0.16" stroke-miterlimit="10"/>
<path d="M69.2732 9.80489H65.6399V12.2122H68.9154V13.1276H65.6399V15.5349H69.2732V16.4677H64.6113V8.87207H69.2732V9.80489Z" fill="white" stroke="white" stroke-width="0.16" stroke-miterlimit="10"/>
<path d="M73.6039 16.4677H72.5753V9.80489H70.3467V8.87207H75.8341V9.80489H73.6039V16.4677V16.4677Z" fill="white" stroke="white" stroke-width="0.16" stroke-miterlimit="10"/>
<path d="M79.8047 16.4677V8.87207H80.8316V16.4677H79.8047Z" fill="white" stroke="white" stroke-width="0.16" stroke-miterlimit="10"/>
<path d="M85.3841 16.4677H84.3639V9.80489H82.127V8.87207H87.621V9.80489H85.3841V16.4677Z" fill="white" stroke="white" stroke-width="0.16" stroke-miterlimit="10"/>
<path d="M98.0099 15.4904C97.2227 16.2585 96.2474 16.6418 95.084 16.6418C93.9139 16.6418 92.9386 16.2585 92.1513 15.4904C91.3657 14.7239 90.9746 13.7831 90.9746 12.6698C90.9746 11.5564 91.3657 10.6157 92.1513 9.84913C92.9386 9.08102 93.9139 8.69775 95.084 8.69775C96.2407 8.69775 97.216 9.08102 98.0033 9.85547C98.7955 10.6283 99.1866 11.5627 99.1866 12.6698C99.1866 13.7831 98.7955 14.7239 98.0099 15.4904ZM92.9119 14.8538C93.5045 15.4223 94.2251 15.7074 95.084 15.7074C95.9361 15.7074 96.6634 15.4223 97.2493 14.8538C97.8402 14.2852 98.1397 13.5551 98.1397 12.6698C98.1397 11.7845 97.8402 11.0544 97.2493 10.4858C96.6634 9.91723 95.9361 9.63216 95.084 9.63216C94.2251 9.63216 93.5045 9.91723 92.9119 10.4858C92.3211 11.0544 92.0215 11.7845 92.0215 12.6698C92.0215 13.5551 92.3211 14.2852 92.9119 14.8538V14.8538Z" fill="white" stroke="white" stroke-width="0.16" stroke-miterlimit="10"/>
<path d="M100.63 16.4677V8.87207H101.878L105.759 14.7794H105.804L105.759 13.3192V8.87207H106.786V16.4677H105.715L101.65 10.2689H101.605L101.65 11.7355V16.4677H100.63V16.4677Z" fill="white" stroke="white" stroke-width="0.16" stroke-miterlimit="10"/>
<path d="M90.7215 27.5601C87.5942 27.5601 85.0394 29.8249 85.0394 32.9496C85.0394 36.049 87.5942 38.3375 90.7215 38.3375C93.8555 38.3375 96.4104 36.049 96.4104 32.9496C96.4104 29.8249 93.8555 27.5601 90.7215 27.5601ZM90.7215 36.2152C89.0056 36.2152 87.5293 34.8675 87.5293 32.9496C87.5293 31.0063 89.0056 29.6823 90.7215 29.6823C92.4375 29.6823 93.9205 31.0063 93.9205 32.9496C93.9205 34.8675 92.4375 36.2152 90.7215 36.2152V36.2152ZM78.3236 27.5601C75.1896 27.5601 72.6414 29.8249 72.6414 32.9496C72.6414 36.049 75.1896 38.3375 78.3236 38.3375C81.4559 38.3375 84.0058 36.049 84.0058 32.9496C84.0058 29.8249 81.4559 27.5601 78.3236 27.5601ZM78.3236 36.2152C76.606 36.2152 75.1247 34.8675 75.1247 32.9496C75.1247 31.0063 76.606 29.6823 78.3236 29.6823C80.0396 29.6823 81.5159 31.0063 81.5159 32.9496C81.5159 34.8675 80.0396 36.2152 78.3236 36.2152ZM63.5706 29.2119V31.502H69.3177C69.1496 32.7817 68.7002 33.7224 68.0111 34.3781C67.1723 35.17 65.8657 36.049 63.5706 36.049C60.0338 36.049 57.2643 33.3328 57.2643 29.9674C57.2643 26.6019 60.0338 23.8858 63.5706 23.8858C65.4829 23.8858 66.8744 24.5969 67.9013 25.5187L69.5973 23.9048C68.1609 22.5998 66.2502 21.5973 63.5706 21.5973C58.7206 21.5973 54.6445 25.3524 54.6445 29.9674C54.6445 34.5824 58.7206 38.3375 63.5706 38.3375C66.192 38.3375 68.1609 37.5202 69.7088 35.9872C71.2949 34.4779 71.7893 32.3557 71.7893 30.6421C71.7893 30.1099 71.7427 29.6206 71.6594 29.2119H63.5706ZM123.898 30.9873C123.43 29.7821 121.987 27.5601 119.048 27.5601C116.135 27.5601 113.71 29.7441 113.71 32.9496C113.71 35.9682 116.11 38.3375 119.327 38.3375C121.929 38.3375 123.43 36.8282 124.047 35.9492L122.117 34.7249C121.473 35.6213 120.595 36.2152 119.327 36.2152C118.067 36.2152 117.163 35.6657 116.584 34.5824L124.159 31.6002L123.898 30.9873V30.9873ZM116.175 32.7817C116.11 30.7038 117.871 29.6396 119.132 29.6396C120.121 29.6396 120.96 30.1099 121.24 30.783L116.175 32.7817V32.7817ZM110.018 38.0096H112.508V22.1722H110.018V38.0096ZM105.941 28.7606H105.857C105.298 28.1303 104.231 27.5601 102.88 27.5601C100.044 27.5601 97.4506 29.9294 97.4506 32.967C97.4506 35.9872 100.044 38.3375 102.88 38.3375C104.231 38.3375 105.298 37.7626 105.857 37.1132H105.941V37.8861C105.941 39.9465 104.784 41.0536 102.918 41.0536C101.397 41.0536 100.453 40.0083 100.064 39.1293L97.8983 39.9893C98.5225 41.4178 100.175 43.1758 102.918 43.1758C105.837 43.1758 108.301 41.5414 108.301 37.5646V27.8879H105.941V28.7606V28.7606ZM103.093 36.2152C101.377 36.2152 99.9405 34.8485 99.9405 32.967C99.9405 31.0681 101.377 29.6823 103.093 29.6823C104.784 29.6823 106.117 31.0681 106.117 32.967C106.117 34.8485 104.784 36.2152 103.093 36.2152V36.2152ZM135.555 22.1722H129.6V38.0096H132.083V32.0088H135.555C138.313 32.0088 141.017 30.1099 141.017 27.0897C141.017 24.0711 138.306 22.1722 135.555 22.1722V22.1722ZM135.62 29.8058H132.083V24.3752H135.62C137.474 24.3752 138.532 25.8402 138.532 27.0897C138.532 28.3156 137.474 29.8058 135.62 29.8058ZM150.97 27.53C149.176 27.53 147.31 28.2839 146.543 29.9547L148.747 30.8337C149.221 29.9547 150.093 29.6696 151.015 29.6696C152.303 29.6696 153.61 30.4061 153.63 31.7063V31.8726C153.181 31.6256 152.219 31.2597 151.035 31.2597C148.662 31.2597 146.243 32.503 146.243 34.8231C146.243 36.9454 148.187 38.3121 150.373 38.3121C152.044 38.3121 152.966 37.5947 153.545 36.7601H153.63V37.9843H156.028V31.9091C156.028 29.1011 153.825 27.53 150.97 27.53ZM150.671 36.2089C149.858 36.2089 148.727 35.8256 148.727 34.8675C148.727 33.6417 150.138 33.1713 151.36 33.1713C152.453 33.1713 152.966 33.4009 153.63 33.7034C153.435 35.17 152.109 36.2089 150.671 36.2089V36.2089ZM164.766 27.8769L161.912 34.7424H161.827L158.876 27.8769H156.198L160.632 37.4712L158.102 42.8099H160.697L167.529 27.8769H164.766V27.8769ZM142.382 38.0096H144.872V22.1722H142.382V38.0096Z" fill="white"/>
<path d="M13.8938 9.55174C13.5027 9.94134 13.2764 10.5479 13.2764 11.3334V39.353C13.2764 40.1385 13.5027 40.7451 13.8938 41.1347L13.9904 41.2202L30.491 25.5253V25.1548L13.9904 9.45989L13.8938 9.55174Z" fill="url(#paint0_linear_105_423)"/>
<path d="M35.9853 30.7593L30.4912 25.525V25.1544L35.992 19.9202L36.1151 19.9883L42.6295 23.5153C44.4886 24.5162 44.4886 26.1633 42.6295 27.1705L36.1151 30.6912L35.9853 30.7593V30.7593Z" fill="url(#paint1_linear_105_423)"/>
<path d="M36.1156 30.6914L30.4917 25.3399L13.8945 41.1346C14.512 41.7522 15.519 41.8267 16.6641 41.209L36.1156 30.6914" fill="url(#paint2_linear_105_423)"/>
<path d="M36.1156 19.9884L16.6641 9.47077C15.519 8.85945 14.512 8.93388 13.8945 9.55154L30.4917 25.3398L36.1156 19.9884Z" fill="url(#paint3_linear_105_423)"/>
<defs>
<linearGradient id="paint0_linear_105_423" x1="29.0259" y1="39.6448" x2="7.78897" y2="17.3265" gradientUnits="userSpaceOnUse">
<stop stop-color="#00A0FF"/>
<stop offset="0.0066" stop-color="#00A1FF"/>
<stop offset="0.2601" stop-color="#00BEFF"/>
<stop offset="0.5122" stop-color="#00D2FF"/>
<stop offset="0.7604" stop-color="#00DFFF"/>
<stop offset="1" stop-color="#00E3FF"/>
</linearGradient>
<linearGradient id="paint1_linear_105_423" x1="45.0504" y1="25.3379" x2="12.8322" y2="25.3379" gradientUnits="userSpaceOnUse">
<stop stop-color="#FFE000"/>
<stop offset="0.4087" stop-color="#FFBD00"/>
<stop offset="0.7754" stop-color="#FFA500"/>
<stop offset="1" stop-color="#FF9C00"/>
</linearGradient>
<linearGradient id="paint2_linear_105_423" x1="33.0575" y1="22.4308" x2="4.25842" y2="-7.83456" gradientUnits="userSpaceOnUse">
<stop stop-color="#FF3A44"/>
<stop offset="1" stop-color="#C31162"/>
</linearGradient>
<linearGradient id="paint3_linear_105_423" x1="9.71668" y1="50.4565" x2="22.5768" y2="36.9417" gradientUnits="userSpaceOnUse">
<stop stop-color="#32A071"/>
<stop offset="0.0685" stop-color="#2DA771"/>
<stop offset="0.4762" stop-color="#15CF74"/>
<stop offset="0.8009" stop-color="#06E775"/>
<stop offset="1" stop-color="#00F076"/>
</linearGradient>
</defs>
</svg>
